# xmcd CD database file
#
# Track frame offsets:
#	180
#	18102
#	32801
#	49804
#	72831
#	92232
#	106548
#	123096
#	138159
#	161759
#	176477
#
# Disc length: 2615 seconds
#
# Revision: 0
# Processed by: cddbd v1.5.2PL0 Copyright (c) Steve Scherf et al.
# Submitted via: CDex 1.70beta2
#
DISCID=830a350b
DTITLE=BLACK MOTH - CONDEMNED TO HOPE
DYEAR=2014
DGENRE=Stoner
TTITLE0=TUMBLEWEAVE
TTITLE1=SET YOURSELF ALIGHT
TTITLE2=LOONER
TTITLE3=THE UNDEAD KING OF ROCK N ROLL
TTITLE4=THE LAST MAZE
TTITLE5=WHITE LIES
TTITLE6=RED INK
TTITLE7=ROOM 13
TTITLE8=STINKHORN
TTITLE9=SLUMBER WITH THE WORM
TTITLE10=CONDEMNED TO HOPE
EXTD=YEAR: 2014
EXTT0=
EXTT1=
EXTT2=
EXTT3=
EXTT4=
EXTT5=
EXTT6=
EXTT7=
EXTT8=
EXTT9=
EXTT10=
PLAYORDER=
